Patient4_TMGait_0pt7_01_right_26_EMG.mot
version=1
nRows=23
nColumns=33
inDegrees=no
endheader
time	1LAddLong	2LGlutMax	3LGlutMed	4LIliopsoas	5LSemiMemb	6LBicFemLong	7LRecFem	8LVastMed	9LVastLat	10LGasMed	11LTibAnt	12lTibPost	13LPeroneusLong	14LSol	15LExtDigLong	16LFlexDigLong	17RAddLong	18RGlutMax	19RGlutMed	20RIliopsoas	21RSemiMemb	22RBicFemLong	23RRecFem	24RVastMed	25RVastLat	26RGasMed	27RTibAnt	28RTibPost	29RPeroneusLong	30RSol	31RExtDigLong	32RFlexDigLong
30.19	-0.015411	0.46921	0.032349	-0.000305	0.06012	0.08316	-0.12451	0.025635	0.13351	-0.02594	0.071564	-0.014496	-0.005341	-0.072327	0.026398	-0.00412	0.001373	0.068512	0.030518	-0.1413	0.22308	-0.025024	-0.45822	-0.048218	0.010834	0.02121	-0.022278	0.007019	0.38559	0.23575	-0.005493	-0.017853
30.191	-0.019073	0.52231	0.025787	-0.005035	0	0.16998	-0.009155	0.006866	0.28748	-0.022736	0.094299	-0.014343	-0.063019	-0.016022	0.013885	-0.001373	0.016785	0.054626	0.10254	-0.025024	0.064087	0.075378	-0.40726	-0.031128	-0.00946	-0.00473	-0.056305	0.006409	0.37888	0.22766	-0.001068	-0.024567
30.192	-0.019379	0.52597	0.023956	-0.012512	-0.044861	0.25055	0.048981	0.007019	0.21652	-0.027771	0.058441	-0.019073	-0.06012	0.025635	-0.052185	0.001373	0.009766	0.045013	-0.023499	0.027313	-0.08728	0.1918	-0.4744	0.02655	0.010223	-0.016632	-0.022125	0.01358	0.14816	0.34851	-0.003052	-0.028381
30.193	-0.024109	0.53925	0.035553	-0.009003	-0.096741	0.30853	0.00824	0.008087	0.084381	-0.018921	-0.059357	-0.016327	0.054626	0.060883	-0.032196	-0.006104	-0.004578	0.092468	-0.062561	0.12604	-0.012665	0.19058	-0.50217	0.031281	0.02533	-0.032654	0.031738	-0.005341	-0.15549	0.30212	-0.003815	-0.027618
30.194	-0.029144	0.47379	0.041656	-0.014343	-0.12772	0.29144	-0.049133	0.00885	0.12131	-0.001984	-0.058746	-0.013275	0.007324	0.078125	0.003662	0.002899	-0.000916	-0.038605	0.12222	0.23804	0.41748	0.030823	-0.49805	-0.009003	0.024261	-0.036316	0.049286	-0.021973	-0.2359	0.10941	-0.002747	-0.014496
30.195	-0.019226	0.53513	0.039825	0.01297	-0.052032	0.15839	-0.08667	0.00351	0.27924	0.00061	-0.048523	-0.010834	-0.01709	0.045929	0.020294	-0.004578	0.020294	0.056	-0.31998	0.10376	0.53925	0.028381	-0.50873	-0.058746	0.002747	-0.012512	0.03952	-0.03006	-0.18051	-0.27145	-0.002136	-0.001831
30.196	-0.011597	0.51163	0.031586	0.015564	0.000916	0.067444	-0.077972	-0.002289	0.29465	0.009766	-0.12451	-0.009918	0.007629	0.011139	0.00061	-0.003357	0.030518	0.11246	-0.39688	-0.013885	0.32638	0.080872	-0.50461	0.023804	-0.004883	0.003967	0.060577	-0.013275	-0.086823	-0.44601	0	-0.008698
30.197	-0.01358	0.54108	0.078888	0.010071	0.015411	0.022125	0.012817	-0.014343	0.13565	0.006256	-0.15793	-0.00885	0.067444	0.020599	0.031281	-0.003815	0.047607	0.098114	0.21393	-0.02243	0.13092	0.078583	-0.51407	0.026855	0.019531	0.007477	0.13153	0.01358	-0.18158	-0.10803	-0.000458	-0.007935
30.198	-0.009003	0.53726	0.11169	0.002594	-0.057068	0.10208	0.067139	-0.001678	0.035858	0.003204	-0.093994	-0.007935	0.046997	0.040588	0.019836	-0.002594	0.070343	0.056458	0.52536	-0.05722	0.12802	-0.063171	-0.50079	0.030365	0.031281	0.006256	0.061646	0.036316	-0.41824	0.16022	-0.001831	-0.005493
30.199	0.014801	0.5542	0.10437	0.006561	-0.02594	-0.002441	0.077209	0.002289	0.076904	-0.011292	0.053711	-0.009918	0.18417	0.056305	0.042267	0.00351	0.062714	0.000916	0.59158	0.025787	0.1712	-0.23315	-0.52261	0.01358	0.014191	-0.015717	-0.063629	0.034485	-0.48401	-0.014801	-0.005493	-0.011444
30.2	0.025482	0.62439	0.083008	0.006256	-0.000458	-0.51102	0.077667	0.005188	0.14313	-0.009155	0.19287	-0.009003	0.1265	0.052795	0.045929	-0.003204	0.040131	0.058289	0.60684	0.011444	0.15198	-0.27603	-0.52277	-0.009155	0.021667	-0.038147	-0.17487	0.002899	-0.16693	-0.004272	-0.004425	-0.009613
30.201	0.022583	0.699	0.085144	-0.000305	0.011444	-0.56213	0.02655	0.007019	0.16144	-0.011902	0.27329	-0.006104	0.048981	0.084076	0.083008	0.004272	0.006104	0.019379	-0.28854	-0.033112	0.044403	-0.27695	-0.57434	0.013428	0.019073	-0.065002	0.088196	-0.013733	0.18051	-0.18326	-0.002289	-0.007324
30.202	0.026398	0.70587	0.077209	0.012817	0.029907	-0.37766	-0.01236	0.015717	0.099945	-0.018005	0.2063	-0.007172	0.050659	0.057983	0.022736	0.007629	-0.027618	0.01709	-0.44525	-0.12619	0.12131	-0.27557	-0.57983	0.071716	0.037231	-0.028839	0.40741	-0.02533	0.83283	-0.495	-0.001068	0.001373
30.203	0.021057	0.63034	0.039063	0.000305	0.001831	-0.20477	0.00061	0.006409	0.040894	-0.010834	0.019226	-0.004425	0.063782	0.096741	-0.037079	0.005188	-0.034485	0.040588	-0.11032	-0.1532	0.063171	-0.15243	-0.52353	0.035858	0.031281	-0.005493	0.13107	-0.050201	0.73257	-0.71487	-0.003357	-0.009155
30.204	-0.010834	0.50293	-0.04776	0.004272	-0.066528	-0.094757	0.06424	-0.006409	-0.010529	-0.003815	-0.076141	-0.009918	-0.04364	0.038757	0.017395	0.001068	-0.025482	0.073547	-0.031891	-0.050049	-0.12665	-0.011292	-0.49088	0.034637	0.021515	-0.059814	-0.093079	-0.039368	0.30579	-0.56885	-0.004578	-0.010376
30.205	-0.007629	0.35584	-0.10696	-0.006256	-0.056763	-0.14328	0.012512	0.00885	-0.008392	0.002899	-0.18509	0.007629	-0.042419	0.043945	0.046539	-0.002594	-0.037231	0.11597	-0.18845	0.081024	0.15488	0.084991	-0.5484	0.13092	0.044403	-0.045776	-0.13001	0.052948	0.19547	-0.38635	-0.001678	-0.008392
30.206	0.001984	0.26169	-0.12482	0.002594	0.063629	-0.091858	0.025024	0.032501	-0.009155	0.023804	-0.11261	-0.000916	0.24338	0.06546	0.18433	0.003967	-0.052338	0.090485	-0.39749	0.074463	0.20737	0.11978	-0.51987	0.078583	0.030212	0.059509	-0.10162	0.038757	0.16541	0.18127	-0.001068	-0.016174
30.207	0	0.24002	-0.002136	-0.006104	0.098724	0.19394	0.13184	0.038147	-0.12451	0.020142	-0.080109	-0.005341	0.1828	0.10864	0.06424	0.012054	-0.031586	0.04715	0.003204	-0.043335	0.28412	0.14358	-0.52246	0.024872	0.003967	0.11978	0.005188	0.006104	0.061035	0.6189	-0.001373	-0.014343
30.208	-0.011902	0.26367	-0.032196	0.001068	0.088959	0.392	0.1471	0.033569	-0.21851	0.002594	-0.1207	0.005188	0.026245	0.10986	-0.063782	0.011597	-0.036316	0.12207	-0.01358	-0.057068	0.31296	0.20203	-0.52978	0.053711	0.022888	0.067902	0.034332	0.009918	0.10635	0.3183	-0.002289	-0.022583
30.209	-0.005798	0.24246	-0.032654	0.001831	0.052338	0.52017	0.09201	0.029602	-0.19394	0.020294	-0.10513	0.001373	0.04776	0.054016	-0.10498	0.011902	-0.039368	0.12848	-0.30045	-0.11063	0.36896	0.09079	-0.53131	0.066833	0.039368	0.053253	0.011444	-0.18524	0.13992	0.31464	-0.007019	-0.022888
30.21	-0.011597	0.16205	-0.067291	-0.003967	0.029144	0.55817	0.12146	0.017395	-0.20386	0.004883	-0.071564	0.007935	0.28519	0.022278	-0.14923	0.007172	-0.058899	0.12451	-0.21637	-0.20615	0.30914	0.019836	-0.522	0.082703	0.035248	0.00824	0.005951	-0.06073	0.071411	-0.095825	-0.005951	-0.024414
30.211	-0.020905	0.11902	-0.10422	0.007019	-0.011902	0.51056	0.06546	0.005646	-0.39978	-0.002747	-0.039825	0.008545	0.25452	0.014648	-0.10773	0.006866	-0.06073	0.09613	0.018311	-0.16403	0.22629	-0.054779	-0.51529	0.10162	0.024567	-0.082703	0.035248	0.26398	-0.19501	0.29556	-0.004883	-0.025635
30.212	0.002289	0.11063	-0.12238	0.011749	-0.047607	0.12665	0.003204	-0.022736	-0.52063	0.002289	-0.050049	0.011597	-0.093842	-0.007629	-0.06012	-0.001526	-0.036163	0.12314	0.13977	-0.022583	0.18478	0.066681	-0.49225	0.032196	0.010681	-0.025024	0.11261	0.088348	-0.35858	0.41824	-0.008392	-0.014038
